# xmcd
#
# Track frame offsets:
#	150
#	9062
#	22461
#	45718
#	69391
#	84403
#	95341
#	119169
#	129715
#	147437
#	176732
#	202014
#	212726
#
# Disc length: 3061 seconds
#
# Revision: 1
# Processed by: cddbd v1.5.2PL0 Copyright (c) Steve Scherf et al.
# Submitted via: audiograbber 1.83.01
#
DISCID=c10bf30d
DTITLE=Ismael Reinhardt - 2004 Gypsy Swing
DYEAR=2004
DGENRE=Gypsy Swing
TTITLE0=Shine
TTITLE1=Minor Swing
TTITLE2=Autumn Leaves
TTITLE3=Fly Me to the Moon
TTITLE4=Fascinating Rhythm
TTITLE5=It Had to Be You
TTITLE6=There Is no Greater Love
TTITLE7=Sweet Georgia Brown
TTITLE8=Beautiful Love
TTITLE9=My One and Only Love
TTITLE10=Night and Day
TTITLE11=Pent-up House
TTITLE12=Tears
EXTD=
EXTT0=
EXTT1=
EXTT2=
EXTT3=
EXTT4=
EXTT5=
EXTT6=
EXTT7=
EXTT8=
EXTT9=
EXTT10=
EXTT11=
EXTT12=
PLAYORDER=
